<svg width="60" height="42" viewBox="0 0 60 42" fill="none" xmlns="http://www.w3.org/2000/svg">
<path d="M5.80114 0.330303C5.67945 0.539751 4.26789 4.33973 2.68597 8.73812C0.471289 14.8719 -0.161478 16.8766 0.0332193 17.2357C0.349603 17.864 5.46042 20.6467 6.09318 20.527C6.48258 20.4971 7.18836 18.7916 9.54907 12.2389C11.204 7.7208 12.5425 3.80115 12.5425 3.53186C12.5425 2.99328 12.1288 2.72399 8.89196 1.04841C6.67728 -0.118513 6.16619 -0.238197 5.80114 0.330303Z" fill="#F8CF2C"/>
<path d="M51.1412 0.240847C51.0439 0.390448 50.1434 1.10854 49.0969 1.79671C46.9309 3.26282 46.3711 3.77147 46.3711 4.3998C46.3711 4.63916 46.9065 5.92574 47.5393 7.27216C48.1964 8.61859 49.681 11.7004 50.8735 14.1838C53.721 20.138 53.5993 19.9585 54.1104 20.2876C54.7675 20.7364 60 16.8467 60 15.9192C60 15.5601 58.3694 11.8799 56.3737 7.69105C53.0152 0.659733 52.6988 0.121164 52.0174 0.0314026C51.6036 -0.0284386 51.2142 0.0613232 51.1412 0.240847Z" fill="#757676"/>
<path d="M31.2578 4.13049C28.897 5.17772 24.565 8.16983 20.6224 11.4911C18.8701 12.9871 18.432 13.7351 18.6024 15.0816C18.8701 17.206 20.4277 16.9068 26.1469 13.6155C30.4303 11.1619 31.3064 10.773 31.9149 11.2816C32.1582 11.4611 35.7601 15.68 43.183 24.4469C44.3268 25.8232 45.5194 27.1996 45.8114 27.5587L46.3468 28.187L47.734 26.9004C49.316 25.3744 51.7253 22.2028 51.7253 21.6044C51.7253 21.3949 50.7762 19.2406 49.608 16.8769C48.4155 14.4832 47.223 12.0296 46.9066 11.4013C46.6145 10.8029 46.1278 9.75565 45.8601 9.09738C45.568 8.43912 45.203 7.81078 45.0569 7.69109C44.9109 7.57141 44.8866 7.45173 45.0083 7.45173C45.13 7.45173 45.0813 7.24228 44.9109 7.00291C44.6432 6.61394 44.5459 6.61394 43.9131 7.00291C42.6476 7.81078 41.6984 7.57141 38.6563 5.62654C35.2247 3.4423 33.5941 3.11317 31.2578 4.13049Z" fill="#757676"/>
<path d="M23.9805 4.72966C23.6398 4.87926 22.5446 5.44776 21.5224 6.04617C18.2369 7.93119 17.1661 8.05087 15.1461 6.7942C14.6107 6.46507 14.1726 6.25562 14.1239 6.31546C13.9535 6.52491 9.13477 20.5279 9.13477 20.7972C9.13477 21.0665 11.4955 23.9987 12.7123 25.2255C13.1991 25.7341 13.2964 25.7341 13.8075 25.2853C14.1239 25.016 14.854 24.8066 15.5111 24.8066C16.509 24.8066 16.7767 24.9562 17.6041 25.9136C18.1396 26.542 18.602 27.2601 18.675 27.4994C18.748 27.8286 19.04 27.679 19.8675 26.8711C21.8632 24.9262 23.08 24.657 24.4916 25.8239C24.9783 26.2428 25.5137 26.9908 25.6841 27.4994C25.9762 28.3671 26.0248 28.3971 27.12 28.2475C29.1643 27.9183 30.6976 29.5341 30.8436 32.1372C30.9166 33.0348 31.0383 33.3639 31.4034 33.4537C32.7176 33.7529 33.7154 35.5182 33.7154 37.5229C33.7154 38.5702 33.7397 38.6001 34.4942 38.5103C35.492 38.3906 36.2708 37.134 36.0518 36.0568C35.9544 35.608 34.9079 34.0521 33.7154 32.5561C31.525 29.8632 31.1357 28.9656 31.9631 28.427C32.3038 28.2175 32.9123 28.786 35.3947 31.7183C37.0739 33.6631 38.5829 35.3088 38.8019 35.3088C40.2135 35.4285 41.0166 34.6206 41.0166 33.0946C41.0166 32.3466 40.6028 31.6584 38.5342 29.0852C37.147 27.3798 35.9788 25.9436 35.9544 25.8538C35.9058 25.794 35.9301 25.4648 36.0274 25.1357C36.3438 23.879 37.1226 24.4774 40.2378 28.2475C42.9149 31.4789 43.426 31.9876 44.1074 31.9876C44.8375 31.9876 45.884 31.1498 45.884 30.5514C45.884 30.1923 45.665 29.923 42.1118 25.7042C40.2378 23.49 37.0009 19.6003 34.9079 17.1169L31.1113 12.539L29.1887 13.7358C21.5468 18.4035 19.8432 18.972 18.2856 17.5358C17.0931 16.3988 16.7523 14.9626 17.2877 13.287C17.7258 11.8508 17.7745 11.791 23.4451 7.45246C25.1974 6.10601 26.6576 4.87926 26.6576 4.72966C26.6576 4.40052 24.8323 4.43045 23.9805 4.72966Z" fill="#F8CF2C"/>
<path d="M13.8328 27.4388C11.4721 29.8623 13.8328 32.9739 16.2909 30.6701C17.021 29.982 17.1671 29.6828 17.1671 28.6954C17.1671 26.5712 15.3174 25.883 13.8328 27.4388Z" fill="#757676"/>
<path d="M19.965 29.0843C17.9937 31.0291 17.7746 31.3583 17.7016 32.3456C17.5799 34.2007 18.8211 35.218 20.1597 34.3203C20.8168 33.9015 23.7373 31.0591 24.151 30.4606C24.4188 30.0717 24.5648 29.2638 24.4918 28.456C24.4431 27.7978 23.4939 26.9001 22.8368 26.9001C22.3501 26.9001 21.4739 27.5883 19.965 29.0843Z" fill="#757676"/>
<path d="M26.8768 30.1325C26.1954 30.4915 21.839 34.9796 21.693 35.4583C21.2306 36.9544 22.0337 38.5701 23.2506 38.5701C23.9077 38.5701 26.3901 36.3859 28.6778 33.8426C30.2597 32.0474 28.8238 29.0853 26.8768 30.1325Z" fill="#757676"/>
<path d="M28.386 36.6545C27.0717 38.1505 26.9014 38.4497 26.9014 39.497C26.9014 40.3347 27.0474 40.7536 27.4368 41.0828C28.459 41.9804 29.2621 41.6812 30.8197 39.856C32.0122 38.4797 32.2556 38.0009 32.2556 37.1931C32.2556 36.5049 32.0853 36.0561 31.6228 35.6073C30.6007 34.6199 29.9922 34.8293 28.386 36.6545Z" fill="#757676"/>
</svg>
