<svg width="60" height="72" viewBox="0 0 60 72" fill="none" xmlns="http://www.w3.org/2000/svg">
<path d="M0 35.8881V71.7762H30H60V35.8881V0H30H0V35.8881ZM38.4 4.46607V5.42309H30H21.6V4.46607V3.50906H30H38.4V4.46607ZM38.4 8.93215V9.88917H30H21.6V8.93215V7.97514H30H38.4V8.93215ZM38.2933 14.2595C38.4 15.3442 38.3467 16.9073 38.16 18.1514C36.7733 27.1793 29.5733 30.8797 24.72 25.0738C22.5867 22.4899 21.3333 17.9919 21.7067 14.2595L21.8933 12.4412H30H38.1067L38.2933 14.2595ZM26.3467 32.1239C27.2533 33.5594 28 34.8354 28 34.963C28 35.0587 27.2533 35.0906 26.3467 34.9949C20.08 34.2931 18.1333 34.006 18.1333 33.7827C18.1333 33.4637 20.08 31.5815 21.36 30.6883C22.6133 29.7951 24.3467 29.0295 24.56 29.3166C24.64 29.4123 25.4667 30.6883 26.3467 32.1239ZM39.6267 31.4858C41.2267 32.7938 42.0533 33.7189 41.84 33.9741C41.52 34.3569 32 35.3139 32 34.963C32 34.8673 32.8 33.4956 33.7867 31.9325L35.5733 29.0614L36.8 29.6356C37.4667 29.9546 38.7467 30.784 39.6267 31.4858ZM32.2667 30.1779C32.2667 30.4331 30.1867 33.3999 30 33.3999C29.8133 33.3999 27.7333 30.4331 27.7333 30.1779C27.7333 30.146 28.7467 30.146 30 30.146C31.2533 30.146 32.2667 30.146 32.2667 30.1779ZM18.6933 39.0463C26.08 40.2904 34.88 40.2904 41.7067 39.0782C43.1733 38.823 44.5067 38.5997 44.6667 38.5997C44.8267 38.5997 45.2267 39.2377 45.52 40.0033L46.1067 41.4069L44.4533 41.8854C37.28 44.0228 28.1067 44.4375 20.5333 42.97C18.1067 42.5234 15.6267 41.9492 14.9867 41.7259L13.8667 41.3112L14.4267 39.9395C15.0667 38.4083 14.9333 38.4402 18.6933 39.0463ZM14.3733 46.6386L15.7333 46.9895V48.9992V50.9771L13.84 50.4029C12.8 50.0839 11.8933 49.733 11.8133 49.6373C11.5467 49.3183 12.32 46.2558 12.6667 46.2558C12.88 46.2558 13.6267 46.4153 14.3733 46.6386ZM47.9733 47.7232C48.16 48.5526 48.1867 49.3183 48.08 49.4459C47.8667 49.6692 44.8533 50.7219 44.4533 50.7219C44.3467 50.7219 44.2667 49.8925 44.2667 48.8397V46.9895L45.4133 46.6705C47.52 46.0644 47.6267 46.0963 47.9733 47.7232ZM22.8 48.3612C28.4267 49.1907 36.24 48.9035 41.4133 47.6594L42.1333 47.468V49.5416V51.5832L39.0133 52.1893C34.6133 53.0506 25.7333 53.0506 21.1467 52.1893L17.8667 51.5832V49.5416V47.468L18.6133 47.6594C19.0133 47.7551 20.9067 48.0741 22.8 48.3612ZM15.68 57.9633L15.76 59.9092L13.3333 59.1755C11.9733 58.7608 10.8267 58.3461 10.7467 58.2504C10.6667 58.1547 10.6933 57.3253 10.7733 56.3683L10.96 54.6456L13.28 55.3156L15.6 56.0174L15.68 57.9633ZM49.2 56.3045C49.3067 57.2934 49.3333 58.1547 49.2533 58.2504C49.1733 58.3461 48.0267 58.7608 46.6667 59.1755L44.24 59.9092L44.32 57.9633L44.4 56.0174L46.2667 55.3156C49.0133 54.2628 48.9867 54.2628 49.2 56.3045ZM21.4933 57.2934C25.0133 57.9314 34 58.0271 37.3333 57.4529C38.5867 57.2615 40.16 57.0063 40.88 56.8787L42.1333 56.6873V58.6013V60.5153L41.1467 60.7387C33.6533 62.2699 28.1333 62.3018 19.1467 60.7387L17.8667 60.5153V58.6651C17.8667 57.3253 17.9733 56.783 18.2133 56.783C18.4267 56.783 19.8933 57.0063 21.4933 57.2934ZM13.2 64.2158L15.6 64.9495L15.68 66.6084L15.76 68.2672H13.0933H10.4V65.8746C10.4 64.5667 10.48 63.4821 10.6133 63.4821C10.72 63.4821 11.8933 63.833 13.2 64.2158ZM49.6 65.8746V68.2672H46.9067H44.24L44.32 66.6084L44.4 64.9495L46.6667 64.2477C47.92 63.8649 49.0933 63.514 49.28 63.514C49.4933 63.4821 49.6 64.152 49.6 65.8746ZM22 66.2574C26.4 66.9912 34.88 66.9912 38.7467 66.2574C40.32 65.9703 41.7333 65.7151 41.8667 65.7151C42.0267 65.7151 42.1333 66.2893 42.1333 66.9912V68.2672H30H17.8667V66.9912C17.8667 65.4918 17.6533 65.5237 22 66.2574Z" fill="#757676"/>
<path d="M21.2393 32.1949C20.8251 32.4221 19.9087 33.2552 16.6925 36.3266C12.1987 40.6266 11.9696 40.8706 11.9696 41.4008C11.9696 41.8468 12.3044 42.4106 12.7538 42.7387C13.1239 43.008 13.1768 43.0164 13.8112 42.9996L14.4809 42.9744L15.0096 43.4372C15.3003 43.6812 16.4194 44.7415 17.5032 45.7681C19.4593 47.6446 19.4682 47.653 19.3096 47.8297C19.2214 47.9307 15.4589 51.5575 10.9387 55.8828C1.40463 65.0213 0.893569 65.5262 0.373692 66.1826C-0.0580705 66.7211 -0.0845049 66.8642 0.135782 67.3102C0.620413 68.3115 1.59849 68.7744 2.32103 68.3452C2.79685 68.0675 4.24193 66.7127 13.1063 58.281L21.8649 49.9419L24.0149 51.9951C26.579 54.4522 26.861 54.7636 26.7641 54.9992C26.7288 55.0918 26.6936 55.3358 26.6936 55.5546C26.6848 55.9922 26.9843 56.455 27.5395 56.8589C27.8126 57.0524 27.9624 57.0945 28.3677 57.1029C28.8436 57.1029 28.8788 57.0861 29.4692 56.598C30.7645 55.5125 37.9282 48.6039 38.0868 48.2757C38.3864 47.6783 38.1132 46.8873 37.4524 46.3992C37.1528 46.1804 37.0647 46.1636 36.3598 46.1636L35.5932 46.1552L34.8177 45.4483C34.3948 45.0528 31.6192 42.4274 28.6497 39.6168L23.2659 34.4922L23.3893 34.2061C23.7241 33.4403 23.2747 32.5568 22.3495 32.1528C21.8561 31.9425 21.6975 31.9425 21.2393 32.1949Z" fill="#F8CF2C"/>
</svg>
