<svg width="69" height="75" viewBox="0 0 69 75" fill="none" xmlns="http://www.w3.org/2000/svg">
<path d="M27.1486 0.0494232C24.324 0.489615 21.969 2.58786 21.162 5.39042C20.2156 8.69186 21.8516 12.3675 24.955 13.9081C29.0414 15.9404 33.9129 13.8788 35.2775 9.55024C36.0992 6.94577 35.3948 4.06985 33.458 2.14034C32.5556 1.23061 31.2644 0.496952 30.0465 0.196154C29.3275 0.0200768 27.8382 -0.0532885 27.1486 0.0494232Z" fill="#757676"/>
<path d="M46.0619 0.0787516C43.4795 0.570299 41.3886 2.29439 40.4642 4.69343C40.0973 5.63985 40.002 6.20476 40.002 7.38594C40.002 8.28834 40.0313 8.55979 40.1854 9.14671C40.897 11.8319 42.9586 13.8494 45.6511 14.5171C46.5608 14.7372 48.0868 14.7372 48.9965 14.5171C51.2195 13.9668 53.1123 12.4115 54.0441 10.3499C54.4769 9.38882 54.6457 8.5818 54.6457 7.38594C54.6457 6.20476 54.5503 5.63985 54.1835 4.69343C53.3178 2.44845 51.469 0.819741 49.0626 0.188799C48.3289 -0.00928688 46.8029 -0.0606432 46.0619 0.0787516Z" fill="#757676"/>
<path d="M25.8645 15.302C25.5197 15.4121 25.1089 15.5735 24.9475 15.6468C23.5095 16.3585 21.8661 17.4076 20.5602 18.4641C17.1854 21.1712 15.2119 24.6928 14.5002 29.2488C14.4195 29.755 14.3388 30.3419 14.3168 30.5547C14.2801 30.9068 14.2948 30.9435 14.4049 30.8922C14.4709 30.8628 14.8084 30.7381 15.1532 30.6134C15.7401 30.4079 15.8428 30.3933 16.8406 30.3859C18.0218 30.3859 18.572 30.5033 19.4451 30.9582C19.6872 31.0902 19.9073 31.2003 19.9293 31.215C19.9513 31.2223 20.0173 30.9288 20.0613 30.5547C20.1714 29.7623 20.4502 28.4638 20.6116 28.0382C20.7143 27.7668 20.7216 27.8915 20.7216 29.8063C20.729 31.6331 20.7436 31.8826 20.8537 31.9706C21.1031 32.1834 21.7047 33.0491 21.9395 33.5406C22.7905 35.3234 22.6291 37.3923 21.5066 39.0724C21.1471 39.608 21.1325 39.6446 21.1325 40.1655L21.1251 40.7011L21.7121 41.2073C23.957 43.1368 25.6224 46.1228 26.3047 49.4169C26.5615 50.6568 26.6936 52.0947 26.6642 53.1439C26.6349 53.8629 26.6129 53.9876 26.4001 54.4204C26.114 55.0074 25.5858 55.5209 24.9988 55.7924C24.632 55.9684 24.4926 55.9905 23.847 55.9905C23.2014 55.9905 23.062 55.9684 22.6805 55.785C22.4457 55.675 22.2403 55.5943 22.2256 55.609C22.2109 55.6236 22.1963 58.9177 22.1889 62.9308L22.1816 70.2233L22.5338 70.5021C23.0473 70.8983 23.5829 71.0817 24.3312 71.1257C25.3877 71.1771 26.2094 70.8616 26.9283 70.1059C27.4199 69.5924 27.7427 68.9394 27.8454 68.2425C27.8894 67.9123 27.9188 63.4811 27.9188 56.0051V44.2887H28.1389H28.359V56.1885C28.359 66.5551 28.3736 68.1544 28.469 68.5653C29.166 71.5072 33.1644 72.0795 34.6904 69.4457C35.1379 68.6753 35.1086 69.6511 35.1086 54.4498C35.1086 43.4596 35.1306 40.5544 35.204 40.459C35.2553 40.393 35.4607 40.3269 35.7175 40.3049C36.2384 40.2536 36.8987 39.9601 37.2435 39.6226L37.515 39.3585L37.8158 39.5566C37.9772 39.6667 38.1166 39.7914 38.1166 39.8354C38.1166 39.8721 37.8378 41.1927 37.5003 42.7773C36.4585 47.5901 35.7909 51.0676 35.6588 52.3589C35.5708 53.2246 35.9376 53.7381 37.0748 54.3251C37.7057 54.6552 39.107 55.1394 39.9654 55.3302L40.5303 55.4549L40.5523 62.0284L40.5743 68.6093L40.8457 69.1815C41.6748 70.913 43.6263 71.6026 45.3797 70.7882C45.8859 70.5535 46.6856 69.7685 46.9057 69.2843C47.2946 68.4552 47.2872 68.5506 47.2872 62.1018V56.1005H47.5073H47.7274V61.911C47.7274 65.3519 47.7568 67.9417 47.8008 68.2425C48.0796 70.1867 50.0824 71.5366 51.9606 71.0377C53.0904 70.7369 53.9195 69.9592 54.345 68.8221C54.499 68.4039 54.5064 68.2865 54.5064 65.2712L54.5137 62.1531L53.6333 62.1165L52.7456 62.0798L53.2445 59.2552C53.5086 57.6999 53.736 56.3793 53.736 56.3206C53.7434 56.2326 53.6113 56.1885 53.2445 56.1298C51.9019 55.9171 50.9408 54.9927 50.7354 53.7161C50.6474 53.1659 50.7647 51.2437 50.9555 50.1139C51.4617 47.1573 52.5769 44.6702 54.3596 42.5499C55.0713 41.6989 56.0691 40.7745 56.5753 40.4883C56.6927 40.4223 56.6633 40.3636 56.2892 39.9675C55.5115 39.1237 55.1006 38.3828 54.8365 37.319C54.6164 36.4386 54.6604 35.1253 54.9539 34.2376L55.152 33.614L54.9979 32.917C54.8439 32.2568 54.8365 32.0807 54.8585 29.5789L54.8805 26.9378L55.0493 27.3046C55.4968 28.2437 56.2378 31.0315 56.2378 31.7579C56.2378 31.8753 56.2525 31.9633 56.2745 31.9633C56.2965 31.9633 56.5166 31.7945 56.766 31.5891C57.353 31.1196 58.2333 30.6867 58.9817 30.496C59.6273 30.3346 60.7278 30.2979 61.3734 30.4226C61.5861 30.4666 61.7769 30.4813 61.7989 30.4666C61.8576 30.4006 61.3734 28.251 61.0726 27.2679C59.9648 23.585 58.0206 20.709 55.1226 18.4641C54.3596 17.8625 52.5989 16.6886 51.9826 16.3585C51.7625 16.2338 51.3297 16.0063 51.0289 15.8376C50.7281 15.6762 50.1852 15.4341 49.8183 15.3093L49.158 15.0893L48.2703 16.0063C47.7788 16.5125 47.3459 16.9234 47.3019 16.9234C47.2652 16.9234 46.8617 16.5272 46.4068 16.043C45.952 15.5588 45.5338 15.1626 45.4678 15.1626C45.2257 15.1626 44.3013 15.4928 43.729 15.7862C42.2177 16.5639 39.6572 18.354 38.5347 19.4178C38.1899 19.7406 37.8891 20.0047 37.8598 20.0047C37.8304 20.0047 37.5223 19.7333 37.1775 19.4105C36.8253 19.0803 36.2164 18.5521 35.8202 18.2366C34.8811 17.4736 33.003 16.2411 32.5188 16.0503C32.3134 15.977 31.8878 15.7936 31.5797 15.6468C31.2789 15.5074 30.824 15.3314 30.5673 15.2653L30.1124 15.1333L29.1953 16.0503L28.2709 16.9601L27.3832 16.0283L26.4881 15.1039L25.8645 15.302Z" fill="#757676"/>
<path d="M16.3639 31.6332C16.1218 31.6846 15.7476 31.8019 15.5275 31.89C13.7007 32.609 12.5709 34.7292 12.9817 36.6587C13.1725 37.5538 13.532 38.2067 14.1849 38.8597C15.0433 39.7181 16.0264 40.1289 17.2076 40.1289C18.3961 40.1289 19.3719 39.7181 20.2229 38.8597C21.096 37.9793 21.4921 37.0182 21.4848 35.815C21.4775 34.6265 21.0886 33.7168 20.2082 32.8291C19.7827 32.3962 19.5186 32.1981 19.1078 32C18.1687 31.5525 17.2663 31.4351 16.3639 31.6332Z" fill="#757676"/>
<path d="M59.466 31.6406C58.2041 31.912 57.0009 32.8658 56.4654 34.0249C55.9885 35.0594 55.8931 35.9398 56.1646 36.9816C56.37 37.7886 56.7075 38.3755 57.3017 38.9771C58.1528 39.8281 59.1652 40.2537 60.3757 40.2537C61.5789 40.2537 62.5987 39.8428 63.4351 39.0065C64.2641 38.1848 64.7483 37.0476 64.7483 35.9178C64.7483 33.8855 63.259 32.0514 61.2635 31.6332C60.6325 31.5012 60.0896 31.5012 59.466 31.6406Z" fill="#757676"/>
<path d="M15.7327 40.5103C14.5295 40.9505 12.8641 42.2931 11.8663 43.6284C10.1202 45.9614 9.18116 48.7419 9.01976 52.0654C8.96106 53.1952 9.01976 53.4667 9.37925 53.8775C10.0029 54.5892 11.096 54.5818 11.6829 53.8702C11.9764 53.5107 12.0718 53.1659 12.0718 52.4469C12.0718 51.4124 12.4239 49.2775 12.7247 48.5439C12.7761 48.4191 12.7981 49.2262 12.7981 51.2217C12.8054 53.5254 12.8274 54.171 12.9155 54.5085C13.0108 54.8753 13.0255 55.9904 13.0255 62.3292V69.7244L13.2529 70.1793C13.6931 71.0597 14.6029 71.4559 15.5346 71.1844C16.0335 71.045 16.547 70.6048 16.7818 70.128L16.9506 69.7831L16.9726 63.6425C16.9872 58.3601 17.0092 57.4944 17.0973 57.4944C17.1853 57.4944 17.2073 58.3528 17.222 63.5984L17.244 69.7098L17.4201 70.0986C18.1097 71.6246 20.186 71.6613 21.0077 70.1573C21.125 69.9519 21.1324 69.3429 21.1691 62.5933L21.2057 55.2568L21.3892 54.8166L21.5726 54.3764L21.6093 51.1116L21.6459 47.8469L21.9247 48.6539C22.3649 49.9525 22.6364 51.5518 22.6364 52.9018C22.6364 53.2539 22.6804 53.518 22.7758 53.7161C23.2526 54.7506 24.6172 54.9487 25.3289 54.0829C25.703 53.6281 25.7544 53.3126 25.659 51.9627C25.3876 48.1697 24.177 45.1837 21.9467 42.8434C20.8683 41.7062 19.6431 40.8478 18.6453 40.5103L18.2785 40.393L17.7429 40.9285L17.2073 41.4568L16.6718 40.9285C16.3783 40.6424 16.1069 40.4003 16.0702 40.4076C16.0261 40.4076 15.8794 40.4517 15.7327 40.5103Z" fill="#757676"/>
<path d="M58.8718 40.6571C57.7494 41.068 56.1206 42.3445 55.1302 43.5917C53.2741 45.9247 52.1956 49.0501 52.0782 52.4323C52.0489 53.5181 52.0489 53.5841 52.2176 53.8996C52.6651 54.7653 53.7436 55.0294 54.4993 54.4571C54.9908 54.0903 55.1082 53.7822 55.1669 52.645C55.2256 51.4418 55.3796 50.4294 55.6364 49.461L55.8345 48.7273L55.8565 50.3487L55.8712 51.9627L55.1009 56.306C54.6753 58.6977 54.3305 60.6712 54.3305 60.6859C54.3305 60.7079 54.7267 60.7225 55.2036 60.7225H56.084L56.106 65.506L56.128 70.2967L56.3334 70.7149C56.8616 71.786 58.0868 72.1749 59.1213 71.6026C59.5395 71.3679 59.921 70.8763 60.053 70.4214C60.097 70.2527 60.1264 68.4186 60.1264 65.4326C60.1264 60.7959 60.1264 60.7225 60.2731 60.7225C60.4125 60.7225 60.4125 60.8032 60.4345 65.5793C60.4565 70.4068 60.4565 70.4435 60.6179 70.7369C60.8014 71.0891 61.2415 71.5146 61.5864 71.6907C62.4888 72.1455 63.714 71.7053 64.2202 70.7443L64.4183 70.3701L64.4403 65.5427L64.4623 60.7225H65.4527C66.4358 60.7225 66.4358 60.7225 66.3991 60.5538C66.3845 60.4658 66.0323 58.5142 65.6288 56.2179L64.8951 52.0434V50.1286C64.8951 48.9401 64.9245 48.2578 64.9685 48.3311C65.1152 48.5806 65.4307 49.6444 65.5994 50.4441C65.6948 50.9283 65.8122 51.8233 65.8562 52.5056C65.9443 53.9142 66.0396 54.237 66.4431 54.5892C67.1695 55.2055 68.1892 55.0661 68.7468 54.2811C68.9449 53.9949 68.9669 53.8922 68.9963 53.3273C69.0256 52.4983 68.8936 51.0823 68.6661 49.9085C68.0132 46.5704 66.2744 43.6284 63.8607 41.7796C63.2518 41.3174 62.4007 40.8405 61.8578 40.6571L61.491 40.5397L60.9334 41.0973L60.3685 41.6622L59.8696 41.1046C59.5908 40.7965 59.3194 40.5471 59.2533 40.5544C59.1873 40.5544 59.0186 40.5984 58.8718 40.6571Z" fill="#757676"/>
<path d="M23.6318 34.0617C23.2177 34.2889 22.3013 35.122 19.0851 38.1934C14.5913 42.4934 14.3622 42.7375 14.3622 43.2676C14.3622 43.7136 14.697 44.2774 15.1464 44.6056C15.5165 44.8748 15.5693 44.8833 16.2038 44.8664L16.8734 44.8412L17.4021 45.304C17.6929 45.548 18.812 46.6083 19.8958 47.6349C21.8519 49.5114 21.8607 49.5199 21.7021 49.6966C21.614 49.7975 17.8515 53.4244 13.3312 57.7496C3.79721 66.8881 3.28615 67.393 2.76627 68.0494C2.33451 68.588 2.30807 68.731 2.52836 69.177C3.01299 70.1784 3.99106 70.6412 4.71361 70.212C5.18943 69.9343 6.63451 68.5795 15.4989 60.1478L24.2575 51.8087L26.4075 53.8619C28.9716 56.3191 29.2536 56.6304 29.1566 56.866C29.1214 56.9586 29.0861 57.2026 29.0861 57.4214C29.0773 57.859 29.3769 58.3218 29.932 58.7257C30.2052 58.9193 30.355 58.9613 30.7603 58.9698C31.2361 58.9698 31.2714 58.9529 31.8618 58.4649C33.157 57.3793 40.3208 50.4707 40.4794 50.1426C40.779 49.5451 40.5058 48.7541 39.845 48.266C39.5454 48.0472 39.4573 48.0304 38.7523 48.0304L37.9857 48.022L37.2103 47.3152C36.7874 46.9197 34.0118 44.2942 31.0423 41.4837L25.6585 36.359L25.7818 36.0729C26.1167 35.3071 25.6673 34.4236 24.7421 34.0197C24.2486 33.8093 24.09 33.8093 23.6318 34.0617Z" fill="#F8CF2C"/>
</svg>
