<svg width="60" height="70" viewBox="0 0 60 70" fill="none" xmlns="http://www.w3.org/2000/svg">
<path d="M24.5324 0.587692C20.6071 1.51852 15.4553 3.98721 12.9319 6.17262L11.9506 6.98203L13.738 8.92461L15.5604 10.8672L17.8384 9.4912C19.8361 8.27708 21.0277 7.79144 21.0277 8.19614C21.0277 8.27708 20.4669 9.8959 19.8011 11.798C18.3992 15.8855 17.2777 21.8347 16.7169 28.31L16.2964 32.9641L12.0908 33.0855C9.77767 33.1664 7.21925 33.0855 6.44822 32.9641L5.0113 32.7212L5.18653 30.9405C5.32672 29.3217 5.25663 29.1194 4.66083 29.1194C4.27532 29.1194 3.22391 28.6742 2.34774 28.1481L0.700541 27.2173L0.420166 28.2695C-0.105536 30.4144 0.174839 40.532 0.805681 43.284C1.54166 46.4407 3.3641 50.9734 5.08139 54.0087C6.72859 56.8416 10.6889 61.4148 13.1422 63.3169C19.3104 68.0115 27.266 70.1564 34.1703 68.9423L35.8175 68.659L33.4343 66.1094L31.016 63.5193H28.8081C26.1796 63.5193 25.5137 62.9527 23.8314 59.108C22.78 56.6798 21.3782 52.1471 21.3782 51.0544C21.3782 50.7711 21.9039 50.5687 22.78 50.5687C24.3221 50.5687 24.3221 50.5687 23.7964 48.4238C23.4459 46.9264 23.4109 46.8859 21.974 47.0073L20.502 47.1287L20.1165 44.0934C19.9062 42.4341 19.731 40.0464 19.766 38.8323L19.8011 36.6064L21.9389 36.485C24.0067 36.3636 24.0768 36.3231 24.6726 34.9471C24.988 34.1377 25.1632 33.3688 25.0931 33.2069C24.988 33.045 24.252 32.9641 23.4109 33.045C22.5698 33.1259 21.3782 33.0855 20.7123 32.9641L19.5557 32.7212L19.766 29.2003C19.9062 27.2577 20.1165 24.9914 20.2567 24.1415L20.502 22.6036L29.9646 22.5632L39.4273 22.4822L39.5324 23.6963C39.7777 26.6507 40.4436 27.4196 42.3362 26.8125C43.0721 26.6102 43.1072 26.4483 42.8969 24.2224C42.6866 21.9966 42.7217 21.8752 43.4927 21.6728C43.9483 21.5514 45.7357 21.0657 47.4179 20.6206C49.1352 20.1754 50.7474 19.8112 50.9927 19.8112C51.5535 19.8112 53.3409 23.9796 53.9717 26.6102C54.2521 27.9053 54.6026 28.4314 55.3035 28.7551C56.6002 29.3217 57.8269 30.0502 58.9834 30.9405L59.9998 31.669L59.7544 30.0907C58.4927 21.7133 55.0932 14.4286 49.8362 8.84367L47.488 6.37497L47.3829 7.91285C47.3479 8.8032 47.1376 10.2601 46.8923 11.2314C46.5067 12.9717 46.5418 13.0121 47.8736 14.5905C49.4857 16.4926 49.2754 16.8163 46.2614 17.1806C45.21 17.3425 43.7731 17.6258 43.1072 17.8281C39.4974 18.8803 23.1656 19.4469 21.6936 18.5566C21.1679 18.2328 21.2029 17.8686 22.1492 14.8738C23.4459 10.8672 25.3385 7.06297 26.46 6.21309C26.9156 5.88932 27.3712 5.12038 27.5114 4.51333C27.6165 3.90627 28.1072 2.73263 28.5978 1.92322C29.0534 1.07334 29.4389 0.304398 29.4389 0.182991C29.4389 -0.181244 26.9156 0.0211105 24.5324 0.587692ZM16.2263 36.6873C16.3314 36.8897 16.5067 38.6299 16.6468 40.6534C16.752 42.6365 16.9973 44.9838 17.1725 45.8337C17.488 47.5334 17.2777 47.8167 15.5604 48.0191C14.9296 48.1 13.2123 48.5047 11.7052 48.9499C10.2333 49.3951 8.9015 49.7593 8.76131 49.7593C8.62112 49.7593 7.95523 48.3428 7.2543 46.6026C5.71224 42.7984 4.76597 38.1847 5.22158 36.485C5.29167 36.2422 16.0861 36.4445 16.2263 36.6873ZM19.3805 55.9513C20.1165 58.4605 20.7824 60.8077 20.8875 61.172C21.0627 61.6981 20.9226 61.779 20.3618 61.6171C19.9412 61.4957 19.6258 61.2529 19.6258 61.0506C19.6258 60.8482 19.4155 60.6863 19.1352 60.6863C17.9436 60.6863 10.8641 54.3325 10.8641 53.2398C10.8641 52.916 11.9506 52.4708 13.5978 52.1066C18.224 51.0139 17.8384 50.7306 19.3805 55.9513Z" fill="#757676"/>
<path d="M34.7666 0.547511C33.3297 1.11409 31.4372 3.21853 30.7012 5.03968C29.4746 7.95352 30.3157 12.0815 32.5587 14.2668C37.0096 18.5971 44.1241 14.9143 44.1592 8.27727C44.1592 2.65195 39.2877 -1.35458 34.7666 0.547511ZM39.4629 4.27075C41.4255 5.76814 41.6358 9.53184 39.8835 11.5958C38.5867 13.0932 36.2737 13.336 34.9068 12.0815C31.6825 9.12714 33.0844 3.6637 37.0797 3.62323C37.8858 3.62323 38.9723 3.90652 39.4629 4.27075Z" fill="#F8CF2C"/>
<path d="M4.03038 10.3819C1.50701 11.9198 0 14.5909 0 17.5858C0 21.0663 1.78738 23.9802 4.66122 25.2753C9.95328 27.5822 15.701 20.8639 13.5281 14.9147C12.3014 11.4746 9.98833 9.69385 6.93926 9.69385C5.9229 9.73432 4.62617 10.0176 4.03038 10.3819ZM9.42758 13.9838C11.9509 16.4121 11.3902 20.6211 8.41122 21.9971C4.59113 23.7374 1.29673 18.638 3.71496 14.7932C5.11683 12.6483 7.67524 12.284 9.42758 13.9838Z" fill="#F8CF2C"/>
<path d="M35.5374 31.3468C32.4533 31.9943 29.7897 33.2894 28.6332 34.7058C25.549 38.4291 25.7593 46.5638 29.1238 53.7676C31.8575 59.6358 35.222 63.6424 40.8995 67.8514C43.1075 69.4702 43.3528 69.4297 46.7173 66.8396C54.9883 60.5666 60.2804 50.368 59.8598 41.6668C59.5794 36.6484 57.8622 33.775 54.2874 32.399C50.0117 30.7802 40.7243 30.2541 35.5374 31.3468ZM43.2827 42.2739V49.5586L48.9953 49.761C52.465 49.8824 54.6729 50.1252 54.6379 50.368C54.4276 52.3106 51.8692 56.6005 49.0304 59.7168C46.5771 62.3878 43.528 64.9375 43.2126 64.5732C43.1075 64.4518 43.0374 61.1737 43.0724 57.248L43.1425 50.1657H37.2196H31.3318L30.736 48.0207C29.9649 45.2282 29.9649 40.4122 30.7009 38.7934C31.5771 36.7698 34.1706 35.839 41.0047 35.0701C43.4229 34.7868 43.2827 34.3011 43.2827 42.2739Z" fill="#F8CF2C"/>
</svg>
