<svg width="60" height="70" viewBox="0 0 60 70" fill="none" xmlns="http://www.w3.org/2000/svg">
<path d="M15.9565 0.0947666C12.9849 0.75625 10.084 4.01956 9.12883 7.76796C8.38592 10.5903 8.38592 12.1337 9.0227 14.8238C11.3576 24.4814 22.3951 25.8044 26.0035 16.8082C27.171 13.8977 27.2771 9.57601 26.2512 6.62139C25.6144 4.76924 23.5272 2.03511 21.9352 0.976744C20.8739 0.271162 17.5131 -0.213924 15.9565 0.0947666Z" fill="#757676"/>
<path d="M6.93522 30.0376C5.23714 30.5668 3.82207 31.6252 2.33625 33.5655C0.602792 35.7705 -0.0339879 37.8872 0.00138881 41.4151C0.0367655 44.9871 0.991936 54.5565 1.66409 58.4371C2.65464 63.9054 5.98005 68.4916 9.37621 69.109C10.1899 69.2854 14.5058 69.3295 18.9987 69.2413C26.4985 69.109 27.2061 69.0208 28.515 68.1388C31.0267 66.4631 33.0078 62.9352 33.963 58.4371C34.529 55.8794 35.7672 43.5759 35.7672 40.8859C35.7318 36.917 33.6446 32.8159 30.6376 30.8314C28.8334 29.6848 21.3689 29.1116 21.1566 30.1258C21.0859 30.4786 20.7675 31.7575 20.4491 32.9922C19.8831 35.1531 19.8831 35.55 20.5906 41.1505C21.0859 44.8548 21.3689 49.2646 21.4043 53.013L21.4397 58.9663L20.2015 62.0532C19.1755 64.6109 18.7864 65.1842 18.0081 65.2724C17.2298 65.4047 16.8761 65.096 16.1685 63.6408C15.6733 62.7147 14.9303 60.5539 14.5058 58.9222C13.8337 56.2763 13.7629 55.3502 13.9398 50.4112C14.0459 47.3684 14.3997 42.6498 14.7181 39.9157C15.2487 35.4618 15.2487 34.8444 14.7535 33.6537C14.4351 32.904 14.1874 31.7134 14.1874 30.9637V29.6408L11.1097 29.6848C9.37621 29.729 7.53662 29.8612 6.93522 30.0376Z" fill="#757676"/>
<path d="M40.6491 32.508C38.8803 33.2136 38.6327 33.7869 39.411 35.1098C39.8355 35.8595 39.977 35.8595 41.9227 35.1539C47.4414 33.1695 54.0922 37.0061 56.5686 43.665C57.4176 45.8699 57.5238 46.7519 57.5238 50.5884C57.5238 54.3809 57.3823 55.2629 56.6747 56.9827C54.5875 61.9659 51.0852 65.4056 47.2999 66.1994C44.6467 66.7726 41.1798 65.9789 38.8449 64.3031L37.3237 63.2007L36.9346 64.4795C36.6516 65.4497 36.6516 65.8907 36.97 66.1553C38.0666 67.2577 40.5076 68.4484 42.6656 68.9335C49.1395 70.3446 55.7549 65.9789 58.8327 58.3498C59.9294 55.6157 60.0001 55.1747 60.0001 50.8089C60.0001 46.7519 59.8586 45.8258 59.0096 43.2681C57.5945 39.0787 55.1182 35.7713 51.7928 33.7428C49.3164 32.2434 48.8211 32.067 45.708 31.9788C43.4085 31.8906 41.7812 32.067 40.6491 32.508Z" fill="#F8CF2C"/>
<path d="M44.2226 39.3425C44.1872 39.563 44.1165 39.9599 44.0811 40.2245C44.0457 40.4449 43.9749 40.8418 43.9396 41.0182C43.9396 41.1946 43.3735 41.5915 42.7014 41.9002C41.1094 42.6499 40.3312 43.7964 40.1189 45.9132C39.8359 48.4709 40.6496 49.7498 43.7273 51.5137C46.982 53.4099 47.6895 54.5565 46.4867 56.1882C45.8145 57.1142 43.0198 57.2906 41.6047 56.4527C40.5434 55.8795 40.3665 56.0118 40.2604 57.6875C40.1897 58.8341 40.3312 58.9664 41.9939 59.5397C43.3028 59.9806 43.9396 60.4657 44.2226 61.2154C44.7532 62.6707 45.5315 62.5384 45.956 60.9508C46.239 60.0247 46.7343 59.4515 47.6895 58.9664C49.3522 58.1285 50.272 56.3646 50.272 53.895C50.272 51.6901 49.0338 50.0584 46.4513 48.9119C43.232 47.4566 42.4538 46.0455 43.9042 44.4138C44.4348 43.7964 44.9655 43.6641 46.2744 43.8846C47.2296 44.0169 48.2201 44.2374 48.5385 44.4138C48.963 44.6343 49.1753 44.3697 49.3168 43.4437C49.5644 41.812 49.4229 41.5915 47.7602 41.2828C46.6989 41.0623 46.239 40.7095 45.9914 39.9599C45.7084 38.9015 44.2933 38.4605 44.2226 39.3425Z" fill="#F8CF2C"/>
</svg>
