<svg width="76" height="61" viewBox="0 0 76 61" fill="none" xmlns="http://www.w3.org/2000/svg">
<path d="M27.9464 27.6026V55.2053H26.1517H24.3571V36.4968V17.727L20.4089 17.911L16.4094 18.0951L16.2556 36.6195L16.153 55.2053H13.0765H10V57.6589V60.1124H42.8162H75.6324V57.6589V55.2053H72.5559H69.4794L69.3769 36.6195L69.223 18.0951L65.2748 17.911L61.2753 17.727V36.4968V55.2053H59.4807H57.6861V27.6026V0H42.8162H27.9464V27.6026ZM39.7397 8.58749V11.0411H36.1504H32.5612V8.58749V6.13392H36.1504H39.7397V8.58749ZM53.0713 8.58749V11.0411H49.482H45.8927V8.58749V6.13392H49.482H53.0713V8.58749ZM39.7397 20.2419V22.7568L36.3043 22.5728L32.8175 22.3888L32.6637 20.0579L32.5099 17.7884H36.0992H39.7397V20.2419ZM52.9687 20.0579L52.8149 22.3888L49.3795 22.5728L45.8927 22.7568V20.2419V17.7884H49.5333H53.1226L52.9687 20.0579ZM39.7397 31.8964V34.4113L36.3043 34.2273L32.8175 34.0433L32.6637 31.7124L32.5099 29.4428H36.0992H39.7397V31.8964ZM52.9687 31.7124L52.8149 34.0433L49.3795 34.2273L45.8927 34.4113V31.8964V29.4428H49.5333H53.1226L52.9687 31.7124ZM52.5585 48.1513V55.2053H50.7639H48.9693V50.2982V45.391H42.8162H36.6632V50.2982V55.2053H34.8685H33.0739V48.1513V41.0973H42.8162H52.5585V48.1513Z" fill="#757676"/>
<path d="M21.2393 17.1948C20.8251 17.422 19.9087 18.2551 16.6925 21.3265C12.1987 25.6265 11.9696 25.8705 11.9696 26.4007C11.9696 26.8466 12.3044 27.4104 12.7538 27.7386C13.1239 28.0079 13.1768 28.0163 13.8112 27.9995L14.4809 27.9742L15.0096 28.4371C15.3003 28.6811 16.4194 29.7414 17.5032 30.768C19.4593 32.6445 19.4682 32.6529 19.3096 32.8296C19.2214 32.9306 15.4589 36.5574 10.9387 40.8827C1.40463 50.0212 0.893569 50.5261 0.373692 51.1825C-0.0580705 51.721 -0.0845049 51.8641 0.135782 52.31C0.620413 53.3114 1.59849 53.7742 2.32103 53.3451C2.79685 53.0674 4.24193 51.7126 13.1063 43.2809L21.8649 34.9418L24.0149 36.995C26.579 39.4521 26.861 39.7635 26.7641 39.9991C26.7288 40.0917 26.6936 40.3357 26.6936 40.5545C26.6848 40.992 26.9843 41.4549 27.5395 41.8588C27.8126 42.0523 27.9624 42.0944 28.3677 42.1028C28.8436 42.1028 28.8788 42.086 29.4692 41.5979C30.7645 40.5124 37.9282 33.6038 38.0868 33.2756C38.3864 32.6782 38.1132 31.8872 37.4524 31.3991C37.1528 31.1803 37.0647 31.1635 36.3598 31.1635L35.5932 31.1551L34.8177 30.4482C34.3948 30.0527 31.6192 27.4273 28.6497 24.6167L23.2659 19.4921L23.3893 19.2059C23.7241 18.4402 23.2747 17.5566 22.3495 17.1527C21.8561 16.9423 21.6975 16.9423 21.2393 17.1948Z" fill="#F8CF2C"/>
</svg>
