<svg width="33" height="33" viewBox="0 0 33 33" fill="none" xmlns="http://www.w3.org/2000/svg">
<g clip-path="url(#clip0)">
<path d="M28.75 0.5H4.25C2.18225 0.5 0.5 2.18225 0.5 4.25V28.75C0.5 30.8177 2.18225 32.5 4.25 32.5H28.75C30.8177 32.5 32.5 30.8177 32.5 28.75V4.25C32.5 2.18225 30.8177 0.5 28.75 0.5ZM30 28.75C30 29.4393 29.4393 30 28.75 30H21.625V19.8125H25.4869L26.125 15.9375H21.625V13.25C21.625 12.1891 22.4391 11.375 23.5 11.375H26.0625V7.5H23.5C20.3173 7.5 17.7514 10.0781 17.7514 13.2609V15.9375H14V19.8125H17.7514V30H4.25C3.56075 30 3 29.4393 3 28.75V4.25C3 3.56075 3.56075 3 4.25 3H28.75C29.4393 3 30 3.56075 30 4.25V28.75Z" fill="#F8CF2C"/>
</g>
<defs>
<clipPath id="clip0">
<rect width="32" height="32" fill="white" transform="translate(0.5 0.5)"/>
</clipPath>
</defs>
</svg>
