<svg width="33" height="33" viewBox="0 0 33 33" fill="none" xmlns="http://www.w3.org/2000/svg">
<g clip-path="url(#clip0)">
<path d="M30.471 4.17468H2.529C1.41025 4.17468 0.5 5.08493 0.5 6.20368V26.7964C0.5 27.9151 1.41025 28.8254 2.529 28.8254H30.471C31.5898 28.8254 32.5 27.9151 32.5 26.7964V6.20368C32.5 5.08493 31.5898 4.17468 30.471 4.17468ZM27.8667 5.323L16.5 13.6077L5.13331 5.323H27.8667ZM4.09806 27.6771H2.529C2.04344 27.6771 1.64831 27.2819 1.64831 26.7964V8.95L4.09806 10.7356V27.6771ZM27.7536 27.6771H5.24644V11.5726L16.1619 19.5286C16.2626 19.6021 16.3813 19.6388 16.5 19.6388C16.6187 19.6388 16.7375 19.6021 16.8381 19.5286L27.7536 11.5726V27.6771ZM31.3517 26.7964C31.3517 27.2819 30.9566 27.6771 30.471 27.6771H28.9019V10.7356L31.3517 8.95V26.7964ZM31.3517 7.52906L16.5 18.3541L1.64831 7.52906V6.20368C1.64831 5.71812 2.04344 5.323 2.529 5.323H3.18375L16.1619 14.7822C16.2626 14.8557 16.3813 14.8924 16.5 14.8924C16.6187 14.8924 16.7374 14.8557 16.8381 14.7822L29.8162 5.323H30.4709C30.9565 5.323 31.3516 5.71812 31.3516 6.20368V7.52906H31.3517Z" fill="#F8CF2C"/>
</g>
<defs>
<clipPath id="clip0">
<rect width="32" height="32" fill="white" transform="translate(0.5 0.5)"/>
</clipPath>
</defs>
</svg>
