<svg width="20" height="32" viewBox="0 0 20 32" fill="none" xmlns="http://www.w3.org/2000/svg">
<path d="M1.11013 14.7514L15.3505 0.511215C15.6799 0.181592 16.1196 0 16.5884 0C17.0572 0 17.4969 0.181592 17.8262 0.511215L18.8749 1.55966C19.5573 2.24284 19.5573 3.35321 18.8749 4.03535L6.91691 15.9934L18.8882 27.9646C19.2176 28.2943 19.3994 28.7337 19.3994 29.2022C19.3994 29.6713 19.2176 30.1107 18.8882 30.4406L17.8395 31.4888C17.5099 31.8184 17.0705 32 16.6016 32C16.1328 32 15.6932 31.8184 15.3638 31.4888L1.11013 17.2356C0.779985 16.905 0.598654 16.4635 0.599695 15.9941C0.598654 15.523 0.779985 15.0818 1.11013 14.7514Z" fill="#F8FFFE"/>
</svg>
