<svg width="20" height="32" viewBox="0 0 20 32" fill="none" xmlns="http://www.w3.org/2000/svg">
<path d="M18.8899 14.7514L4.64946 0.511215C4.3201 0.181592 3.88043 0 3.41162 0C2.94281 0 2.50314 0.181592 2.17378 0.511215L1.12507 1.55966C0.442669 2.24284 0.442669 3.35321 1.12507 4.03535L13.0831 15.9934L1.1118 27.9646C0.782438 28.2943 0.600586 28.7337 0.600586 29.2022C0.600586 29.6713 0.782438 30.1107 1.1118 30.4406L2.16051 31.4888C2.49013 31.8184 2.92954 32 3.39835 32C3.86716 32 4.30683 31.8184 4.6362 31.4888L18.8899 17.2356C19.22 16.905 19.4013 16.4635 19.4003 15.9941C19.4013 15.523 19.22 15.0818 18.8899 14.7514Z" fill="#F8FFFE"/>
</svg>
