<svg width="60" height="61" viewBox="0 0 60 61" fill="none" xmlns="http://www.w3.org/2000/svg">
<path d="M25.0252 0.894195C20.8309 2.50378 19.0044 7.09406 21.1015 10.7305C22.5898 13.2939 24.687 14.3074 28.4077 14.3074C31.249 14.3074 32.0608 14.0093 34.0226 12.2805C35.9168 10.6113 36.3227 9.7767 36.3227 7.74982C36.3227 4.64988 34.6315 2.08648 31.8578 0.894195C29.2195 -0.17886 27.8665 -0.17886 25.0252 0.894195Z" fill="#757676"/>
<path d="M42.5462 0.715466C41.4638 1.66929 41.4638 9.65758 42.5462 10.6114C43.0197 11.0287 44.1698 11.3268 45.1845 11.3268C46.6728 11.3268 47.0787 11.6249 47.2817 12.9364L47.4846 14.4863L49.5817 12.9364C51.1377 11.7441 52.4907 11.3268 54.5878 11.3268C59.391 11.3268 59.9998 10.7306 59.9998 5.78267C59.9998 3.15965 59.6616 1.13276 59.188 0.715466C58.6468 0.238553 55.8055 9.63211e-05 50.8671 9.63211e-05C45.9287 9.63211e-05 43.0874 0.238553 42.5462 0.715466Z" fill="#F8CF2C"/>
<path d="M17.4483 18.0632C16.163 18.4805 14.5394 19.4939 13.7952 20.3881C12.5099 21.9381 12.4422 22.2361 13.3893 27.4226C13.9305 30.4033 14.2688 32.9667 14.0658 33.0859C13.9305 33.2648 11.1569 33.384 7.90968 33.384C2.83595 33.384 1.88885 33.5628 0.806458 34.6359C-0.478888 35.8282 -0.411238 36.007 2.3624 43.3992C6.08314 53.2951 6.35374 53.6528 10.8863 53.6528H14.5394L14.81 49.7183C15.0806 46.1414 15.2835 45.5453 17.2453 44.0549C19.4101 42.3261 19.4778 42.3261 28.2723 42.3261C33.143 42.3261 37.6756 42.6242 38.4197 42.9223C40.4492 43.9357 41.7346 46.7376 41.7346 50.3741V53.6528H45.32C48.026 53.6528 49.2437 53.3548 50.1231 52.5798C51.2732 51.4471 56.6175 38.0935 56.6175 36.3647C56.6175 34.159 54.3851 33.384 48.1613 33.384H42.2081L42.6817 30.9398C44.1023 23.2496 44.0347 21.4612 42.4111 19.9708C40.7198 18.3612 37.2697 17.2882 33.9548 17.2882C31.3165 17.2882 30.0988 19.3151 30.9783 22.4746C31.8577 25.813 31.7224 31.834 30.7753 32.6686C29.49 33.8013 26.3104 33.5628 25.4986 32.2513C24.6192 30.7014 24.6868 28.5553 25.7692 23.9053C26.9869 18.7785 26.2428 17.2882 22.4544 17.3478C20.9661 17.3478 18.7336 17.6459 17.4483 18.0632Z" fill="#757676"/>
<path d="M19.6804 46.678C19.5451 47.0953 19.4774 50.2548 19.5451 53.7125L19.748 59.9123L27.7984 60.0912C33.075 60.2104 36.1193 60.0316 36.7281 59.5547C37.9458 58.6604 38.0811 47.6914 36.8634 46.6184C35.6457 45.5453 20.1539 45.6049 19.6804 46.678Z" fill="#F8CF2C"/>
</svg>
