<svg width="60" height="47" viewBox="0 0 60 47" fill="none" xmlns="http://www.w3.org/2000/svg">
<path d="M52.1117 0.493805C53.026 0.691338 54.2452 1.28394 54.8039 1.77777C57.2422 3.95063 57.293 4.29631 57.293 23.3089C57.293 40.1979 57.2422 41.3337 56.277 42.8152C54.4484 45.7782 54.1944 45.8276 40.2761 46.0252C26.1038 46.1733 25.2402 46.0252 23.2592 42.8152C22.3448 41.3831 22.2432 40.2473 22.2432 29.5312V17.7779L30.9803 17.6792L39.7681 17.531L39.9205 8.74081L40.0221 -2.67029e-05L45.2541 0.0493584C48.0988 0.0987396 51.1974 0.296272 52.1117 0.493805Z" fill="#F8CF2C"/>
<path d="M3.77459 1.46559C0.20221 4.39684 0 5.51351 0 23.2406C0 39.0833 0.0674034 39.6417 1.55028 41.9448C4.17901 46.0625 4.17901 46.0625 29.9945 46.0625C61.4719 46.0625 59.989 46.9698 59.989 27.0792C59.989 8.1656 59.5172 7.67705 40.6442 7.67705H28.3768L26.5569 4.53642C25.6133 2.79163 24.2652 1.04684 23.5912 0.697876C22.9171 0.279129 18.5359 -3.8147e-05 13.9525 -3.8147e-05C6.47072 -3.8147e-05 5.39227 0.139545 3.77459 1.46559Z" fill="#757676"/>
</svg>
