<svg width="31" height="31" viewBox="0 0 31 31" fill="none" xmlns="http://www.w3.org/2000/svg">
<path d="M12.0524 0.0179844C9.00831 0.194904 5.77069 1.84026 3.53602 4.33482C1.65327 6.44017 0.544739 9.05858 0.333589 11.8716C-0.000730634 16.4184 2.09317 20.753 5.89386 23.3006C9.62417 25.8306 13.6008 26.3082 17.7358 24.7337C18.4045 24.486 19.0027 24.3267 19.0731 24.3621C19.1435 24.4152 20.1816 25.4413 21.3782 26.6798C24.5982 29.9351 25.4604 30.4128 27.3959 29.9351C28.9971 29.5636 30.3696 27.7944 30.352 26.1313C30.3344 25.0167 29.6658 24.0614 27.0088 21.3722L24.3694 18.7184L24.8093 17.6392C25.6363 15.5515 25.8299 14.4723 25.7243 12.2608C25.6539 10.5801 25.5484 9.96087 25.0909 8.74012C23.8064 5.21942 21.6421 2.74255 18.4397 1.15027C16.9792 0.4249 14.0231 -0.10586 12.0524 0.0179844ZM15.6595 2.35332C18.4221 3.02562 21.2902 5.32557 22.5043 7.85552C23.4721 9.87241 23.7184 11.1285 23.6128 13.4108C23.5072 15.7108 23.1377 16.8607 21.9412 18.683C20.5336 20.8237 18.8092 22.0445 15.8355 23.0706C14.8149 23.4245 14.3046 23.4952 12.7562 23.4598C10.7151 23.4245 9.65936 23.1591 7.89978 22.2037C5.7179 21.0183 3.85275 18.8245 2.93777 16.3477C2.35711 14.7731 2.19874 11.9601 2.62104 10.3147C3.90553 5.2725 8.26929 1.89333 13.2841 2.08794C14.1111 2.12333 15.1844 2.24717 15.6595 2.35332Z" fill="#F8FFFE"/>
</svg>
