<svg width="33" height="32" viewBox="0 0 33 32" fill="none" xmlns="http://www.w3.org/2000/svg">
<path d="M16.2468 2.88376C20.5023 2.88376 21.007 2.89976 22.6885 2.97709C27.0078 3.17442 29.0253 5.23176 29.2219 9.53576C29.2989 11.2224 29.3135 11.7291 29.3135 16.0011C29.3135 20.2744 29.2976 20.7798 29.2219 22.4664C29.024 26.7664 27.0118 28.8278 22.6885 29.0251C21.007 29.1024 20.505 29.1184 16.2468 29.1184C11.9913 29.1184 11.4866 29.1024 9.80645 29.0251C5.47656 28.8264 3.46968 26.7598 3.2731 22.4651C3.19607 20.7784 3.18013 20.2731 3.18013 15.9998C3.18013 11.7278 3.1974 11.2224 3.2731 9.53442C3.471 5.23176 5.4832 3.17309 9.80645 2.97576C11.4879 2.89976 11.9913 2.88376 16.2468 2.88376ZM16.2468 -0.000244141C11.9183 -0.000244141 11.3764 0.0184225 9.67628 0.0957559C3.88805 0.362423 0.671188 3.58642 0.405551 9.40242C0.327188 11.1104 0.308594 11.6544 0.308594 15.9998C0.308594 20.3451 0.327188 20.8904 0.404223 22.5971C0.66986 28.4078 3.88141 31.6371 9.67496 31.9038C11.3764 31.9811 11.9183 31.9998 16.2468 31.9998C20.5754 31.9998 21.1186 31.9811 22.8187 31.9038C28.6016 31.6371 31.8264 28.4131 32.0881 22.5971C32.1664 20.8904 32.185 20.3451 32.185 15.9998C32.185 11.6544 32.1664 11.1104 32.0894 9.40376C31.8291 3.59842 28.6136 0.363756 22.82 0.0970892C21.1186 0.0184225 20.5754 -0.000244141 16.2468 -0.000244141V-0.000244141ZM16.2468 7.78376C11.727 7.78376 8.06254 11.4624 8.06254 15.9998C8.06254 20.5371 11.727 24.2171 16.2468 24.2171C20.7666 24.2171 24.4311 20.5384 24.4311 15.9998C24.4311 11.4624 20.7666 7.78376 16.2468 7.78376ZM16.2468 21.3331C13.3129 21.3331 10.9341 18.9464 10.9341 15.9998C10.9341 13.0544 13.3129 10.6664 16.2468 10.6664C19.1808 10.6664 21.5596 13.0544 21.5596 15.9998C21.5596 18.9464 19.1808 21.3331 16.2468 21.3331ZM24.7552 5.53976C23.6979 5.53976 22.8413 6.39976 22.8413 7.45976C22.8413 8.51976 23.6979 9.37976 24.7552 9.37976C25.8111 9.37976 26.6664 8.51976 26.6664 7.45976C26.6664 6.39976 25.8111 5.53976 24.7552 5.53976Z" fill="#F8FFFE"/>
</svg>
