<svg width="33" height="32" viewBox="0 0 33 32" fill="none" xmlns="http://www.w3.org/2000/svg">
<path d="M32.6294 6.07574C31.4566 6.5984 30.1961 6.9504 28.8733 7.10907C30.224 6.29707 31.2613 5.0104 31.7488 3.47707C30.4857 4.22907 29.0858 4.77574 27.5956 5.0704C26.4042 3.7944 24.7028 2.99707 22.8221 2.99707C18.5998 2.99707 15.4971 6.95174 16.4508 11.0571C11.0171 10.7837 6.19849 8.1704 2.97233 4.1984C1.25897 7.14907 2.08377 11.0091 4.99515 12.9637C3.92464 12.9291 2.91522 12.6344 2.03463 12.1424C1.96291 15.1837 4.13449 18.0291 7.27963 18.6624C6.3592 18.9131 5.35111 18.9717 4.32575 18.7744C5.15719 21.3824 7.57183 23.2797 10.4354 23.3331C7.68606 25.4971 4.22215 26.4637 0.75293 26.0531C3.64705 27.9157 7.08572 29.0024 10.7781 29.0024C22.9203 29.0024 29.7804 18.7077 29.366 9.4744C30.6437 8.54774 31.7528 7.39174 32.6294 6.07574Z" fill="#F8FFFE"/>
</svg>
